<svg width="30" height="111" viewBox="0 0 30 111" fill="none" xmlns="http://www.w3.org/2000/svg">
<path id="Arrow 12" d="M18.4308 91.051C20.3241 87.4877 21.7885 84.7675 23.1642 82.1426C23.6819 81.2041 24.1071 80.2694 24.721 79.4187C25.5051 78.1941 26.363 76.5078 28.1573 77.3525C29.859 78.201 29.1898 79.9714 28.7794 81.2726C28.4652 82.6616 27.7811 84.0657 27.1858 85.3743C24.5604 91.4446 21.8426 97.5187 19.121 103.501C18.3519 105.092 17.6789 106.771 16.6249 108.19C14.5243 111.211 12.2973 111.118 10.5027 107.98C8.10853 103.764 5.89563 99.4501 3.68273 95.1358C2.68362 93.3413 1.6808 91.4552 0.955417 89.5578C0.540912 88.4736 0.581366 87.1875 0.440584 86.0004C3.01515 85.529 3.62948 86.9721 4.32886 88.2282C6.21602 91.363 8.01442 94.5931 9.90157 97.7278C10.5935 98.8008 11.2892 99.9653 12.8134 101.005C12.9315 99.3482 13.1458 97.7797 13.1714 96.1272C13.3171 83.7348 13.4666 71.4341 13.6124 59.0418C13.8089 41.0505 14.0092 23.1509 14.2982 5.15592C14.3312 3.68656 14.8267 2.19843 15.2185 0.439267C17.7823 1.9868 17.3055 3.93292 17.2762 5.49388C17.4479 14.295 17.4384 23.1953 17.5176 32.0002C17.6394 50.9878 17.7611 69.9754 17.8829 88.963C17.994 89.4172 18.0976 89.6883 18.4308 91.051Z" fill="black"/>
</svg>
