<svg width="39" height="79" viewBox="0 0 39 79" fill="none" xmlns="http://www.w3.org/2000/svg">
<path id="Arrow 10" d="M14.9021 59.8082C14.9021 58.106 14.9021 56.2336 14.9021 54.5315C15.0739 39.5525 15.4175 24.4033 15.5894 9.42432C15.5894 7.72216 15.5894 6.19022 15.7612 4.48806C15.933 2.27526 16.4484 -0.448194 19.3691 0.0624533C20.5718 0.232669 21.9463 2.78591 22.1181 4.31785C22.8053 16.9138 23.3207 29.3396 23.8362 41.9355C24.008 44.8292 23.8362 47.7229 25.3824 50.7867C27.4441 47.3824 29.1622 43.8079 31.3957 40.5738C32.4266 39.0418 35.0037 37.3397 36.55 37.6801C39.6425 38.361 39.2989 41.7653 38.2681 43.8079C33.8011 54.0208 29.334 64.404 24.008 74.2765C20.5718 80.5745 15.4175 80.5745 11.9814 74.2765C7.34255 65.9359 3.90638 56.9145 0.12659 48.2335C-0.388835 47.2122 0.813822 45.5101 1.15744 44.1483C2.53191 44.659 4.59361 44.659 5.28085 45.6803C6.99893 47.7229 8.02978 50.4463 9.40425 52.8293C10.7787 55.3826 12.1532 57.9358 13.5276 60.3188C13.8713 59.9784 14.3867 59.8082 14.9021 59.8082Z" fill="black"/>
</svg>
